<svg fill="none" height="231" viewBox="0 0 206 231" width="206" xmlns="http://www.w3.org/2000/svg"><path d="m143.143 84c0 12.1503-9.85 22-22 22-12.151 0-22.0004-9.8497-22.0004-22s9.8494-22 22.0004-22c12.15 0 22 9.8497 22 22z" fill="#ffc131"/><ellipse cx="84.1426" cy="147" fill="#24c8db" rx="22" ry="22" transform="matrix(-1 0 0 -1 168.2852 294)"/><g clip-rule="evenodd" fill-rule="evenodd"><path d="m166.738 154.548c-8.878 5.738-18.715 9.721-28.981 11.793 2.101-6.059 3.243-12.567 3.243-19.341 0-2.457-.15-4.879-.442-7.257 4.417-1.539 8.657-3.604 12.625-6.168 9.547-6.171 17.109-14.967 21.778-25.331 4.669-10.3643 6.246-21.8564 4.541-33.0953-1.704-11.2389-6.618-21.7466-14.15-30.2604-7.532-8.5139-17.362-14.6718-28.31-17.7337-10.947-3.062-22.546-2.8978-33.402.4728-10.8561 3.3706-20.5081 9.8043-27.7963 18.5279-.9335 1.1174-1.8231 2.2663-2.6677 3.444-11.2468 1.2495-22.1397 4.4325-32.2131 9.3563 3.2788-10.497 8.6024-20.2965 15.7161-28.8114 10.3715-12.4144 24.1071-21.56994 39.5564-26.36658 15.4496-4.79663 31.9546-5.03029 47.5336-.67288s29.568 13.12046 40.287 25.23636 17.711 27.069 20.137 43.0629c2.426 15.9938.181 32.348-6.463 47.097s-17.406 27.266-30.992 36.047zm-124.7749-80.273 20.5926 2.5292c.4902-3.9912 1.3844-7.9024 2.6581-11.6768-8.1673 1.8742-16.005 4.9596-23.2507 9.1476z" fill="#ffc131"/><path d="m38.4045 76.4519c8.9448-5.781 18.8632-9.7807 29.2126-11.8387-2.3397 6.3537-3.6171 13.2211-3.6171 20.3869 0 2.1433.1143 4.2599.3371 6.3441-4.3278 1.529-8.4838 3.565-12.3772 6.0814-9.5471 6.1704-17.1094 14.9664-21.7783 25.3304-4.669 10.364-6.2459 21.856-4.5413 33.095s6.6181 21.747 14.1503 30.261c7.5321 8.514 17.3624 14.672 28.3097 17.734 10.9473 3.061 22.5459 2.897 33.4017-.473 10.857-3.371 20.509-9.805 27.797-18.528.938-1.123 1.832-2.278 2.68-3.462 11.256-1.269 22.153-4.473 32.226-9.421-3.276 10.528-8.609 20.357-15.741 28.894-10.372 12.414-24.107 21.57-39.557 26.366-15.449 4.797-31.9546 5.031-47.5334.673-15.5788-4.357-29.5681-13.12-40.2869-25.236s-17.71113-27.069-20.136877-43.063c-2.425743-15.994-.181684-32.348 6.462547-47.097 6.64423-14.7493 17.40593-27.2663 30.99213-36.0471zm124.6575 80.2591c-.108.062-.216.124-.324.186.108-.062.216-.124.324-.186z" fill="#24c8db"/></g></svg>